<svg width="12" height="18" viewBox="0 0 12 18" fill="none" xmlns="http://www.w3.org/2000/svg">
<path d="M6.00001 2.33317C8.33334 2.33317 10.1667 4.1665 10.1667 6.49984C10.1667 8.9165 7.75001 12.4998 6.00001 14.7498C4.25001 12.4998 1.83334 8.9165 1.83334 6.49984C1.83334 4.1665 3.66667 2.33317 6.00001 2.33317ZM6.00001 0.666504C2.75001 0.666504 0.166672 3.24984 0.166672 6.49984C0.166672 10.8332 6.00001 17.3332 6.00001 17.3332C6.00001 17.3332 11.8333 10.8332 11.8333 6.49984C11.8333 3.24984 9.25001 0.666504 6.00001 0.666504ZM5.41667 10.6665L9.50001 6.49984L8.33334 5.33317L5.41667 8.33317L4.08334 6.99984L2.91667 8.1665L5.41667 10.6665Z" fill="#474B4F"/>
</svg>
