<svg width="16" height="18" viewBox="0 0 16 18" fill="none" xmlns="http://www.w3.org/2000/svg">
<path d="M5.5 8.3335H3.83333V10.0002H5.5V8.3335ZM8.83333 8.3335H7.16667V10.0002H8.83333V8.3335ZM12.1667 8.3335H10.5V10.0002H12.1667V8.3335ZM13.8333 2.50016H13V0.833496H11.3333V2.50016H4.66667V0.833496H3V2.50016H2.16667C1.24167 2.50016 0.5 3.25016 0.5 4.16683V15.8335C0.5 16.2755 0.675595 16.6994 0.988155 17.012C1.30072 17.3246 1.72464 17.5002 2.16667 17.5002H13.8333C14.2754 17.5002 14.6993 17.3246 15.0118 17.012C15.3244 16.6994 15.5 16.2755 15.5 15.8335V4.16683C15.5 3.7248 15.3244 3.30088 15.0118 2.98832C14.6993 2.67576 14.2754 2.50016 13.8333 2.50016ZM13.8333 15.8335H2.16667V6.66683H13.8333V15.8335Z" fill="#474B4F"/>
</svg>
