<svg width="18" height="18" viewBox="0 0 18 18" fill="none" xmlns="http://www.w3.org/2000/svg">
<path d="M9.00001 15.6665C12.6667 15.6665 15.6667 12.6665 15.6667 8.99984C15.6667 5.33317 12.6667 2.33317 9.00001 2.33317C5.33334 2.33317 2.33334 5.33317 2.33334 8.99984C2.33334 12.6665 5.33334 15.6665 9.00001 15.6665ZM9.00001 0.666504C13.5833 0.666504 17.3333 4.4165 17.3333 8.99984C17.3333 13.5832 13.5833 17.3332 9.00001 17.3332C4.41667 17.3332 0.666672 13.5832 0.666672 8.99984C0.666672 4.4165 4.41667 0.666504 9.00001 0.666504ZM13.1667 8.58317V9.83317H8.16667V4.83317H9.41667V8.58317H13.1667Z" fill="#474B4F"/>
</svg>
