<svg xmlns="http://www.w3.org/2000/svg" width="468" height="83.94936708860759" viewBox="0 0 468 83.94936708860759" class="editor-view__logo-preview" data-v-719f541d="" data-v-42122950=""><svg id="mark" viewBox="0 0 790 829" width="80" height="83.94936708860759" x="0" y="0" data-v-719f541d="" style="fill: rgb(0, 0, 0);"><rect x="0" y="0" width="100%" height="100%" fill="none" data-v-719f541d=""></rect><g data-v-719f541d="">
	<path xmlns="http://www.w3.org/2000/svg" d="M 359 4.696 C 342.226 5.499, 316.830 9.272, 298.500 13.684 C 278.414 18.519, 277.429 18.817, 255.998 26.555 C 254.072 27.250, 247.097 30.155, 240.498 33.011 C 202.007 49.665, 173.676 67.778, 138.927 97.949 C 84.119 145.534, 35.952 221.640, 18.643 288 C 17.280 293.225, 15.257 300.875, 14.146 305 C 8.891 324.523, 6.349 339.937, 4.415 364 C 0.988 406.652, 3.273 461.915, 9.706 492 C 19.675 538.615, 32.128 571.193, 54.813 610 C 65.617 628.484, 73.986 640.459, 91.853 663 C 97.294 669.865, 112.005 685, 113.236 685 C 113.739 685, 110.050 680.566, 105.038 675.147 C 53.284 619.197, 19.206 547.112, 9.038 472.078 C 2.672 425.097, 3.871 367.817, 12.097 326 C 26.962 250.431, 61.953 182.240, 113.934 127.538 C 179.049 59.014, 257.033 18.837, 345 8.495 C 374.174 5.065, 413.372 5.501, 442 9.573 C 484.868 15.671, 527.318 28.716, 564.500 47.217 C 610.803 70.256, 650.042 100.798, 686.682 142.315 C 741.354 204.266, 776.348 288.177, 783.095 373.500 C 784.569 392.134, 783.713 438.877, 781.542 458.382 C 777.799 492, 772.025 517.219, 760.028 552.349 C 745.325 595.401, 716.283 645.188, 688.630 674.746 C 683.883 679.820, 680 684.247, 680 684.584 C 680 684.921, 681.463 684.295, 683.250 683.193 C 686.876 680.958, 697.582 668.925, 704.776 659 C 707.368 655.425, 711.516 649.726, 713.994 646.336 C 721.518 636.043, 737.802 608.468, 743.558 596.272 C 745.056 593.097, 747.833 587.350, 749.729 583.500 C 761.053 560.506, 770.506 530.096, 780.037 486 C 786.048 458.190, 787.859 376.012, 783.122 346 C 778.216 314.914, 770.643 286.437, 759.986 259 C 758.811 255.975, 757.488 252.375, 757.045 251 C 755.697 246.818, 746.021 226.189, 739.690 214 C 728.893 193.215, 710.712 165.764, 698.603 151.964 C 696.896 150.019, 693.475 145.985, 691 142.999 C 688.525 140.013, 683.518 134.404, 679.873 130.535 C 676.229 126.666, 672.121 122.150, 670.744 120.500 C 667.082 116.110, 644.989 96.280, 634 87.522 C 623.423 79.091, 596.755 60.972, 587.500 55.928 C 559.504 40.671, 529.657 27.808, 507.500 21.450 C 480.721 13.766, 470.708 11.440, 445.500 7.046 C 431.878 4.671, 385.721 3.418, 359 4.696 M 369.500 11.674 C 348.648 12.702, 321.711 16.695, 300.495 21.904 C 198.013 47.062, 103.593 123.926, 56.539 220.500 C 35.445 263.792, 21.075 312.885, 15.998 359 C 13.934 377.745, 13.568 431.248, 15.375 450 C 19.996 497.952, 30.457 538.052, 49.288 580 C 61.550 607.313, 79.864 636.838, 108.473 675.411 C 115.819 685.316, 116.662 686.118, 119.188 685.612 C 123.560 684.738, 138.881 686.974, 146.387 689.581 C 155.857 692.871, 164.340 697.607, 186.500 711.973 C 214.706 730.259, 214.894 730.376, 223 734.727 C 256.921 752.932, 287.527 765.215, 312.475 770.636 C 318.874 772.027, 319.218 773.465, 318.551 796 C 318.234 806.725, 318.352 816.850, 318.815 818.500 C 319.651 821.483, 320.990 796.929, 320.997 778.491 L 321 770.482 312.750 768.642 C 286.750 762.843, 245.773 745.735, 219.001 729.500 C 165.383 696.988, 126.855 658.526, 94.789 605.500 C 67.088 559.693, 49.430 507.708, 42.818 452.500 C 41.005 437.369, 41.015 372.140, 42.832 358.500 C 44.566 345.485, 49.382 321.017, 52.577 309 C 78.446 211.679, 146.033 128.237, 236 82.548 C 285.740 57.288, 332.875 46.013, 388.778 46.003 C 473.965 45.988, 556.494 76.490, 623.900 132.901 C 629.730 137.780, 640.377 147.786, 647.560 155.136 C 701.156 209.977, 736.382 282.773, 746.697 360 C 748.973 377.045, 749.257 432.706, 747.163 451.500 C 738.627 528.120, 713.791 591.055, 668.670 650.410 C 652.322 671.916, 624.885 698.488, 602.591 714.407 C 584.344 727.437, 555.155 743.564, 533.882 752.370 C 516.332 759.635, 485.753 768.734, 469.750 771.453 L 466 772.091 466.015 797.295 C 466.025 813.938, 466.360 821.990, 467 821 C 467.541 820.163, 467.983 810.657, 467.999 799.500 C 468.032 777.943, 468.591 775.084, 473.021 773.834 C 474.385 773.449, 478.200 772.426, 481.500 771.560 C 498.365 767.136, 515.892 761.547, 534.838 754.551 C 542.236 751.819, 563.927 740.939, 576.500 733.652 C 607.705 715.568, 620.491 705.485, 652.660 673.590 C 660.998 665.324, 668.764 658.138, 669.918 657.623 C 671.315 657, 672.899 657.089, 674.652 657.887 L 677.287 659.088 676.600 671.458 C 676.154 679.490, 676.269 684.048, 676.928 684.455 C 678.765 685.591, 706.393 645.962, 719.773 623 C 738.747 590.436, 756.437 544.885, 765.017 506.500 C 777.397 451.109, 779.176 390.090, 769.990 335.847 C 760.373 279.059, 733.467 215.968, 698.404 167.983 C 659.947 115.354, 607.824 73.136, 547.133 45.457 C 492.684 20.624, 429.951 8.694, 369.500 11.674 M 369 75.004 C 311.060 78.751, 257.987 97.547, 209.500 131.493 C 155.624 169.212, 113.713 222.474, 89.887 283.500 C 62.180 354.470, 61.144 444.884, 87.161 521.500 C 107.110 580.247, 135.418 625.084, 179.653 668 C 229.932 716.779, 281.808 744.537, 350.738 759.545 L 352.975 760.032 353.238 683.516 L 353.500 607 333.922 607 L 314.343 607 304.862 597.750 C 288.676 581.958, 287 579.789, 287 574.636 L 287 570.154 279.365 570.732 C 271.243 571.346, 265.884 569.687, 264.475 566.124 C 264.122 565.231, 263.892 532.663, 263.964 493.750 C 264.081 430.293, 263.934 423, 262.536 423 C 260.721 423, 238.332 429.691, 236.535 430.770 C 234.877 431.766, 227.596 439.750, 198.481 472.500 C 184.791 487.900, 173.298 500.628, 172.943 500.784 C 172.293 501.070, 151.747 479.019, 129.353 454 C 122.707 446.575, 109.072 431.500, 99.052 420.500 L 80.835 400.500 81.418 386.320 C 84.373 314.423, 117.330 238.846, 168.942 185.610 C 194.938 158.797, 221.238 138.730, 250.556 123.337 C 315.182 89.408, 383.777 80.339, 456.349 96.131 C 496.479 104.864, 539.655 124.087, 573.788 148.418 C 595.803 164.112, 620 186.533, 636.471 206.500 C 659.924 234.931, 681.211 272.895, 693.552 308.300 C 697.525 319.699, 704 343.125, 704 346.101 C 704 347.429, 693.075 359.411, 672.815 380.303 L 641.630 412.460 627.103 415.704 C 619.113 417.489, 612.076 419.141, 611.466 419.375 C 610.855 419.609, 605.249 427.271, 599.008 436.400 C 592.767 445.530, 587.174 452.976, 586.580 452.947 C 585.986 452.918, 576.950 451.824, 566.500 450.517 L 547.500 448.139 543.428 452.470 C 541.188 454.852, 535.788 461.191, 531.428 466.557 L 523.500 476.312 523.275 520.906 L 523.050 565.500 520.573 567.660 C 518.098 569.820, 508.999 571.157, 500 570.684 C 496.550 570.503, 496.492 570.565, 495.970 575.103 C 495.479 579.374, 494.514 580.686, 482.548 593.353 L 469.654 607 450.327 607 L 431 607 431 683.531 C 431 749.897, 431.195 760.138, 432.468 760.626 C 433.980 761.206, 446.952 758.666, 464.500 754.353 C 546.192 734.277, 613.605 686.617, 661.758 614.897 C 692.259 569.468, 712.901 512.160, 719.172 455.500 C 720.976 439.197, 720.978 376.282, 719.174 362 C 714.758 327.037, 705.604 296.477, 689.967 264.500 C 646.080 174.751, 566.657 109.902, 469.500 84.489 C 439.727 76.701, 400.303 72.980, 369 75.004 M 374.256 113.140 C 371.372 113.492, 367.885 114.063, 366.506 114.409 L 364 115.038 364 218.578 C 364 288.276, 363.669 321.913, 362.986 321.492 C 362.312 321.075, 361.987 286.557, 362.014 218.294 C 362.037 161.879, 361.904 115.570, 361.719 115.385 C 361.533 115.200, 357.921 115.989, 353.691 117.139 L 346 119.229 345.755 220.365 L 345.510 321.500 345.250 220.750 C 345.107 165.338, 344.775 120, 344.512 120 C 344.248 120, 340.651 121.674, 336.517 123.719 L 329 127.439 329 224.386 C 329 277.707, 328.767 321.101, 328.483 320.816 C 328.199 320.532, 327.966 278.044, 327.966 226.400 C 327.965 174.127, 327.575 131.883, 327.086 131.108 C 325.881 129.201, 321.757 132.207, 314.682 140.150 C 303.843 152.317, 297.952 167.386, 296.005 187.924 C 295.453 193.741, 295.001 226.677, 295.001 261.116 L 295 323.731 309.250 324.352 C 323.774 324.984, 479.815 324.546, 480.430 323.871 C 480.616 323.667, 480.439 290.650, 480.038 250.500 C 479.324 179.098, 479.260 177.336, 477.089 170.027 C 473.943 159.436, 467.975 148.534, 461.268 141.127 L 455.500 134.757 455.755 208.129 C 455.895 248.483, 455.626 290.275, 455.157 301 C 454.536 315.203, 454.263 295.029, 454.152 226.730 L 454 132.960 447.075 128.480 C 443.266 126.016, 439.779 124, 439.325 124 C 438.871 124, 438.621 168.408, 438.769 222.686 C 438.917 276.963, 438.867 321.176, 438.658 320.936 C 437.947 320.122, 437.005 240.741, 437.002 181.481 L 437 122.462 429.750 119.714 C 417.897 115.221, 419.066 111.709, 418.750 152.750 L 418.474 188.500 418.237 152.321 L 418 116.142 412.750 115.108 C 409.863 114.539, 405.813 113.782, 403.750 113.426 L 400 112.777 400 217.448 C 400 292.790, 399.694 321.929, 398.909 321.444 C 398.127 320.960, 397.966 291.381, 398.340 216.983 L 398.861 113.197 396.680 112.612 C 391.923 111.336, 385.129 111.950, 384.080 113.750 C 383.137 115.369, 383.059 115.354, 383.030 113.550 C 383.009 112.153, 382.694 111.906, 381.919 112.681 C 381.154 113.446, 380.935 144.029, 381.169 217.298 C 381.351 274.243, 381.275 320.609, 381 320.334 C 380.725 320.059, 380.275 273.184, 380 216.167 L 379.500 112.500 374.256 113.140 M 466.699 205.635 C 465.761 206.572, 466.045 317.071, 466.992 320 C 467.437 321.375, 467.845 300.858, 467.900 274.406 C 467.955 247.954, 468.293 221.516, 468.652 215.656 C 469.257 205.760, 468.820 203.514, 466.699 205.635 M 310.423 233.500 C 310.424 245.050, 310.570 249.638, 310.747 243.696 C 310.924 237.753, 310.923 228.303, 310.745 222.696 C 310.567 217.088, 310.422 221.950, 310.423 233.500 M 531.080 221.750 C 529.903 222.713, 528.672 225.167, 528.346 227.204 C 527.834 230.406, 528.166 231.320, 530.800 233.954 C 534.441 237.595, 538.535 237.940, 542.365 234.927 C 544.491 233.255, 545 232.014, 545 228.500 C 545 224.986, 544.491 223.745, 542.365 222.073 C 539.147 219.541, 533.964 219.393, 531.080 221.750 M 217.143 225.533 C 206.262 234.689, 216.639 251.730, 229.871 246.435 C 236.097 243.944, 238.774 238.387, 236.942 231.753 C 234.637 223.406, 223.740 219.982, 217.143 225.533 M 418.454 280.500 C 418.453 301.400, 418.586 310.092, 418.748 299.816 C 418.911 289.540, 418.911 272.440, 418.749 261.816 C 418.587 251.192, 418.454 259.600, 418.454 280.500 M 614.198 285.673 C 610.129 287.678, 608 291.592, 608 297.068 C 608 300.598, 608.613 301.848, 612.009 305.244 C 615.845 309.080, 616.236 309.232, 621.102 308.764 C 625.043 308.386, 626.864 307.598, 629.202 305.260 C 635.288 299.173, 633.339 288.711, 625.510 285.440 C 621.090 283.593, 618.302 283.650, 614.198 285.673 M 280.342 306.473 C 279.185 307.283, 277.480 309.842, 276.553 312.159 C 274.992 316.061, 274.916 325.293, 275.531 437.436 C 276.161 552.272, 276.288 558.596, 278 560.375 C 280.390 562.857, 284.952 562.777, 287.025 560.218 C 288.507 558.387, 288.724 551.039, 289.204 486.343 C 289.498 446.829, 289.577 390.425, 289.381 361 C 289.055 312.008, 288.881 307.395, 287.321 306.250 C 285.075 304.602, 282.915 304.671, 280.342 306.473 M 486.200 306.200 C 485.280 307.120, 485 336.023, 485 430.203 L 485 553.007 489.816 558.003 C 492.465 560.751, 495.137 563, 495.755 563 C 496.372 563, 497.112 561.087, 497.398 558.750 C 497.685 556.413, 498.198 500.385, 498.537 434.244 L 499.155 313.988 496.988 310.481 C 493.787 305.302, 488.999 303.401, 486.200 306.200 M 252.295 311.108 C 245.841 312.972, 246 311.683, 246 362.288 C 246 393.215, 246.352 408.788, 247.080 410.150 C 248.313 412.454, 253.742 415, 257.421 415 C 261.147 415, 264.644 413.077, 265.890 410.343 C 266.652 408.670, 267 393.489, 267 361.907 L 267 315.909 264.545 313.455 C 263.195 312.105, 261.207 311, 260.127 311 C 259.047 311, 257.564 310.816, 256.832 310.591 C 256.099 310.366, 254.058 310.599, 252.295 311.108 M 508.923 313.923 L 506 316.846 506 363 L 506 409.154 508.923 412.077 C 511.209 414.363, 512.745 415, 515.973 415 C 520.675 415, 525.469 412.860, 526.945 410.103 C 527.571 408.933, 527.980 390.982, 528.032 362.364 L 528.116 316.500 525.042 313.750 C 522.546 311.517, 521.017 311, 516.907 311 C 512.647 311, 511.384 311.462, 508.923 313.923 M 296.218 447.395 C 296.476 553.170, 296.638 562.945, 298.157 564.645 C 299.068 565.665, 300.304 568.343, 300.904 570.596 C 302.723 577.429, 312.197 588.876, 319.197 592.697 C 322.292 594.386, 326.820 594.497, 391 594.445 C 467.678 594.384, 461.819 594.946, 469.874 586.890 C 475.854 580.911, 478.718 575.532, 479.935 568 C 480.624 563.734, 480.987 522.059, 480.992 446.750 L 481 332 388.468 332 L 295.936 332 296.218 447.395 M 531.500 368.025 L 531.500 386.049 534.500 385.411 C 536.150 385.059, 538.962 384.171, 540.750 383.437 L 544 382.102 544 368.184 L 544 354.267 538.867 352.133 C 536.043 350.960, 533.231 350, 532.617 350 C 531.836 350, 531.500 355.420, 531.500 368.025 M 235.210 352.129 C 230.666 353.440, 229.889 356.206, 230.220 369.895 L 230.500 381.500 236 384.218 C 239.025 385.713, 241.838 386.950, 242.250 386.968 C 242.662 386.986, 243 378.900, 243 369 L 243 351 240.750 351.090 C 239.512 351.140, 237.020 351.607, 235.210 352.129 M 657 357.706 C 651.272 359.800, 648.534 367.123, 651.453 372.542 C 654.276 377.784, 659.549 379.319, 665.020 376.490 C 668.591 374.643, 670 372.181, 670 367.788 C 670 361.092, 662.868 355.561, 657 357.706 M 376.804 367.870 C 353.678 375.502, 343.497 402.285, 354.908 425.465 C 366.812 449.646, 397.506 454.064, 417.561 434.483 C 424.540 427.670, 424.710 425.103, 417.750 431.643 C 407.741 441.047, 399.060 444.524, 387.448 443.778 C 369.575 442.631, 357.192 429.671, 355.384 410.221 C 354.775 403.667, 356.995 391.739, 359.062 390.462 C 359.493 390.196, 359.377 391.670, 358.806 393.739 C 357.315 399.137, 358.319 409.763, 360.768 414.500 C 363.744 420.259, 370.581 426.469, 377.500 429.699 C 394.465 437.619, 417.982 428.612, 423.469 412.095 C 425.986 404.515, 425.231 393.255, 421.753 386.500 C 417.681 378.594, 412.574 373.408, 405.363 369.858 C 396.938 365.710, 385.715 364.929, 376.804 367.870 M 382.718 374.044 C 369.500 377.323, 361.020 387.858, 361.020 401 C 361.020 409.559, 364.031 416.044, 370.853 422.178 C 377.063 427.762, 383.132 430.007, 391.928 429.978 C 407.744 429.925, 418.415 418.818, 418.327 402.500 C 418.281 393.966, 416.454 389.468, 410.407 383.004 C 403.365 375.475, 391.902 371.766, 382.718 374.044 M 172.775 388.559 C 171.276 389.372, 169.589 390.900, 169.025 391.953 C 165.759 398.057, 170.551 406, 177.500 406 C 181.944 406, 187 401.542, 187 397.624 C 187 393.749, 184.905 390.002, 181.855 388.425 C 178.411 386.644, 176.245 386.676, 172.775 388.559 M 381.460 397.042 C 377.216 401.472, 377.348 407.135, 381.789 411.102 C 390.177 418.597, 403.585 409.833, 398.569 400.134 C 396.388 395.916, 393.232 394, 388.465 394 C 385.213 394, 383.777 394.623, 381.460 397.042 M 504.872 421.653 C 503.739 423.018, 503.500 434.949, 503.500 490.048 C 503.500 554.432, 503.568 556.864, 505.418 558.909 C 507.589 561.308, 510.282 560.962, 513.500 557.868 C 515.454 555.990, 515.507 554.442, 515.790 490.013 C 516.078 424.784, 516.059 424.059, 514.040 422.040 C 511.580 419.580, 506.763 419.376, 504.872 421.653 M 356 684.345 C 356 756.743, 355.888 761.790, 354.250 763.258 C 353.288 764.120, 348.450 766.457, 343.500 768.450 C 334.457 772.092, 330.196 774.530, 331.170 775.504 C 332.155 776.488, 424.022 772.591, 430.500 771.291 L 433.500 770.688 430.500 769.852 C 428.850 769.392, 423.675 768.554, 419 767.990 C 414.325 767.426, 409.262 766.711, 407.750 766.403 L 405 765.841 405 712.378 C 405 653.019, 405.353 648.843, 411.330 637.500 C 413.080 634.180, 417.509 628.507, 421.246 624.798 C 427.968 618.128, 428 618.070, 428 612.548 L 428 607 392 607 L 356 607 356 684.345 M 357.762 777.907 C 342.703 778.284, 330.691 778.996, 330.262 779.538 C 329.843 780.067, 329.640 789.163, 329.811 799.750 L 330.121 819 395.061 819 L 460 819 460 798.500 L 460 778 428.147 778 C 410.627 778, 393.640 777.829, 390.397 777.620 C 387.154 777.410, 372.468 777.540, 357.762 777.907 M 322.212 824.059 C 324.660 825.486, 334.650 825.910, 376.500 826.366 C 424.036 826.883, 462.446 825.956, 464.151 824.250 C 465.150 823.250, 450.910 823.006, 392.950 823.030 C 344.258 823.051, 321.061 823.388, 322.212 824.059" stroke="none" fill="inherit" fill-rule="evenodd"></path>
</g></svg><svg id="name" viewBox="0 0 372.093994140625 46.22999954223633" width="372" height="46.21832144706013" x="96" y="18.86552282077373" data-v-719f541d="" style="fill: rgb(0, 0, 0);"><rect x="0" y="0" width="100%" height="100%" fill="none" data-v-719f541d=""></rect><g data-v-719f541d=""><path xmlns="http://www.w3.org/2000/svg" d="M3.63 34.73L10.26 4.00Q7.36 4.09 5.82 6.21Q4.28 8.33 4.28 13.52L4.28 13.52Q4.28 15.23 4.60 15.89Q4.92 16.56 4.92 16.65L4.92 16.65Q2.44 16.65 1.22 15.62Q0 14.58 0 12.19L0 12.19Q0 8.92 1.61 6.23Q3.22 3.54 6.74 1.89Q10.26 0.23 15.69 0.23L15.69 0.23Q16.79 0.23 18.63 0.46L18.63 0.46Q21.94 0.78 23.32 0.78L23.32 0.78Q25.76 0.78 27.46 0.23L27.46 0.23Q27.32 0.64 26.96 2.05Q26.59 3.45 25.64 4.44Q24.70 5.43 23.09 5.75L23.09 5.75Q20.38 5.75 16.65 4.88L16.65 4.88L14.72 14.03L21.44 14.03L20.70 17.43L13.98 17.43L10.26 34.73L3.63 34.73ZM18.95 34.73L23.83 11.73L30.45 11.73L29.85 14.58Q31.42 13.20 32.68 12.47Q33.95 11.73 35.42 11.73L35.42 11.73Q36.89 11.73 37.74 12.74Q38.59 13.75 38.59 15.18L38.59 15.18Q38.59 16.51 37.72 17.53Q36.85 18.54 35.28 18.54L35.28 18.54Q34.27 18.54 33.92 18.05Q33.58 17.57 33.40 16.65L33.40 16.65Q33.26 16.05 33.12 15.78Q32.98 15.50 32.61 15.50L32.61 15.50Q31.65 15.50 30.98 15.89Q30.31 16.28 29.26 17.25L29.26 17.25L25.58 34.73L18.95 34.73ZM44.57 35.01Q41.17 35.01 39.28 33.23Q37.40 31.46 37.40 27.69L37.40 27.69Q37.40 24.52 38.64 20.70Q39.88 16.88 42.69 14.10Q45.49 11.32 49.82 11.32L49.82 11.32Q54.88 11.32 54.88 15.73L54.88 15.73Q54.88 18.31 53.41 20.47Q51.93 22.63 49.50 23.94Q47.06 25.25 44.30 25.44L44.30 25.44Q44.21 26.82 44.21 27.28L44.21 27.28Q44.21 29.53 44.99 30.34Q45.77 31.14 47.52 31.14L47.52 31.14Q50.00 31.14 51.77 29.99Q53.54 28.84 55.66 26.50L55.66 26.50L57.22 26.50Q52.12 35.01 44.57 35.01L44.57 35.01ZM44.67 23.23Q46.37 23.14 47.91 22.03Q49.45 20.93 50.39 19.23Q51.34 17.53 51.34 15.64L51.34 15.64Q51.34 13.75 50.19 13.75L50.19 13.75Q48.53 13.75 46.94 16.65Q45.36 19.55 44.67 23.23L44.67 23.23ZM62.24 35.01Q58.83 35.01 56.95 33.23Q55.06 31.46 55.06 27.69L55.06 27.69Q55.06 24.52 56.30 20.70Q57.55 16.88 60.35 14.10Q63.16 11.32 67.48 11.32L67.48 11.32Q72.54 11.32 72.54 15.73L72.54 15.73Q72.54 18.31 71.07 20.47Q69.60 22.63 67.16 23.94Q64.72 25.25 61.96 25.44L61.96 25.44Q61.87 26.82 61.87 27.28L61.87 27.28Q61.87 29.53 62.65 30.34Q63.43 31.14 65.18 31.14L65.18 31.14Q67.67 31.14 69.44 29.99Q71.21 28.84 73.32 26.50L73.32 26.50L74.89 26.50Q69.78 35.01 62.24 35.01L62.24 35.01ZM62.33 23.23Q64.03 23.14 65.57 22.03Q67.11 20.93 68.06 19.23Q69 17.53 69 15.64L69 15.64Q69 13.75 67.85 13.75L67.85 13.75Q66.19 13.75 64.61 16.65Q63.02 19.55 62.33 23.23L62.33 23.23ZM84.59 35.56Q81.70 35.56 79.49 34.55Q77.28 33.53 76.08 31.72Q74.89 29.90 74.89 27.51L74.89 27.51Q74.89 25.48 75.74 23.83Q76.59 22.17 78.04 21.21Q79.49 20.24 81.24 20.24L81.24 20.24Q82.85 20.24 83.95 21.04Q85.05 21.85 85.33 23.28L85.33 23.28Q82.94 23.28 81.51 24.54Q80.09 25.81 80.09 27.97L80.09 27.97Q80.09 29.95 81.28 31.14Q82.48 32.34 84.46 32.34L84.46 32.34Q86.89 32.34 88.48 30.70Q90.07 29.07 90.07 26.59L90.07 26.59Q90.07 24.43 88.87 22.49Q87.68 20.56 85.28 17.80L85.28 17.80Q82.80 14.95 81.53 12.90Q80.27 10.86 80.27 8.42L80.27 8.42Q80.27 6.03 81.60 4.12Q82.94 2.21 85.28 1.10Q87.63 0 90.57 0L90.57 0Q94.30 0 96.53 1.75Q98.76 3.50 98.76 6.44L98.76 6.44Q98.76 8.37 97.80 9.57Q96.83 10.76 95.27 10.76L95.27 10.76Q93.52 10.76 92.46 9.34L92.46 9.34Q93.33 8.69 93.84 7.64Q94.35 6.58 94.35 5.43L94.35 5.43Q94.35 3.96 93.47 3.08Q92.60 2.21 91.08 2.21L91.08 2.21Q89.24 2.21 88.07 3.52Q86.89 4.83 86.89 6.85L86.89 6.85Q86.89 8.69 87.95 10.28Q89.01 11.87 91.26 14.35L91.26 14.35Q93.10 16.33 94.23 17.76Q95.36 19.18 96.16 21.04Q96.97 22.91 96.97 25.07L96.97 25.07Q96.97 28.01 95.33 30.41Q93.70 32.80 90.87 34.18Q88.04 35.56 84.59 35.56L84.59 35.56ZM116.84 35.01Q113.99 35.01 112.52 33.65Q111.04 32.29 111.04 29.76L111.04 29.76Q111.04 28.66 111.32 27.37L111.32 27.37L111.69 25.58Q111.87 24.79 111.87 23.87L111.87 23.87Q111.87 21.67 110.22 21.67L110.22 21.67Q109.48 21.67 108.67 22.08Q107.87 22.49 106.81 23.37L106.81 23.37L104.42 34.73L97.80 34.73L104.47 3.45L111.27 2.53L107.82 18.72L116.70 11.73L121.26 11.73L112.06 18.12Q112.75 17.94 113.57 17.94L113.57 17.94Q116.06 17.94 117.35 19.46Q118.63 20.98 118.63 23.32L118.63 23.32Q118.63 24.29 118.45 25.07L118.45 25.07L117.94 27.37Q117.71 28.20 117.71 28.84L117.71 28.84Q117.71 30.54 119.51 30.54L119.51 30.54Q120.89 30.54 121.72 29.55Q122.54 28.57 123.37 26.50L123.37 26.50L125.30 26.50Q122.45 35.01 116.84 35.01L116.84 35.01ZM130.55 46.23Q128.34 46.23 126.87 45.08Q125.40 43.93 125.40 41.77L125.40 41.77Q125.40 39.15 127.51 37.56Q129.63 35.97 132.89 34.91L132.89 34.91L133.45 32.43Q132.11 33.90 130.73 34.45Q129.35 35.01 127.93 35.01L127.93 35.01Q125.72 35.01 124.36 33.63Q123.00 32.25 123.00 29.49L123.00 29.49Q123.00 28.34 123.37 26.50L123.37 26.50L126.50 11.73L133.12 11.73L129.81 27.37Q129.67 27.92 129.67 28.52L129.67 28.52Q129.67 30.54 131.05 30.54L131.05 30.54Q132.25 30.54 133.17 29.51Q134.09 28.47 134.64 26.77L134.64 26.77L137.86 11.73L144.49 11.73L139.93 33.07Q142.14 32.34 143.47 30.87Q144.81 29.39 145.73 26.50L145.73 26.50L147.66 26.50Q146.42 30.59 144.30 32.50Q142.19 34.41 139.52 35.10L139.52 35.10L138.83 38.41Q137.91 42.87 135.65 44.55Q133.40 46.23 130.55 46.23L130.55 46.23ZM129.49 42.64Q130.27 42.64 131.01 41.58Q131.74 40.53 132.16 38.55L132.16 38.55L132.43 37.21Q127.93 38.87 127.93 41.12L127.93 41.12Q127.93 41.72 128.34 42.18Q128.75 42.64 129.49 42.64L129.49 42.64ZM160.03 34.73L166.29 5.47L173.10 4.55L169.83 19.92Q172.04 19.73 173.90 17.99Q175.77 16.24 176.82 13.66Q177.88 11.09 177.88 8.60L177.88 8.60Q177.88 5.84 176.46 4.09Q175.03 2.35 172.18 2.35L172.18 2.35Q166.57 2.35 163.42 5.29Q160.26 8.23 160.26 13.52L160.26 13.52Q160.26 15.23 160.59 15.89Q160.91 16.56 160.91 16.65L160.91 16.65Q158.42 16.65 157.21 15.62Q155.99 14.58 155.99 12.19L155.99 12.19Q155.99 9.25 158.40 6.46Q160.82 3.68 164.59 1.95Q168.36 0.23 172.13 0.23L172.13 0.23Q175.77 0.23 178.20 1.47Q180.64 2.71 181.81 4.76Q182.99 6.81 182.99 9.29L182.99 9.29Q182.99 12.28 181.36 15.13Q179.72 17.99 176.69 19.80Q173.65 21.62 169.69 21.62L169.69 21.62L169.46 21.62L166.66 34.73L160.03 34.73ZM180.32 34.73L185.20 11.73L191.82 11.73L191.22 14.58Q192.79 13.20 194.05 12.47Q195.32 11.73 196.79 11.73L196.79 11.73Q198.26 11.73 199.11 12.74Q199.96 13.75 199.96 15.18L199.96 15.18Q199.96 16.51 199.09 17.53Q198.21 18.54 196.65 18.54L196.65 18.54Q195.64 18.54 195.29 18.05Q194.95 17.57 194.76 16.65L194.76 16.65Q194.63 16.05 194.49 15.78Q194.35 15.50 193.98 15.50L193.98 15.50Q193.02 15.50 192.35 15.89Q191.68 16.28 190.62 17.25L190.62 17.25L186.94 34.73L180.32 34.73ZM206.08 34.91Q202.68 34.91 200.70 33.17Q198.72 31.42 198.72 27.65L198.72 27.65Q198.72 24.52 200.01 20.70Q201.30 16.88 204.15 14.10Q207 11.32 211.32 11.32L211.32 11.32Q217.21 11.32 217.21 18.68L217.21 18.68L217.21 18.72Q217.35 18.77 217.72 18.77L217.72 18.77Q219.24 18.77 221.21 17.96Q223.19 17.16 224.80 16.01L224.80 16.01L225.22 17.25Q223.88 18.68 221.74 19.66Q219.60 20.65 217.07 21.07L217.07 21.07Q216.71 25.25 215.19 28.38Q213.67 31.51 211.28 33.21Q208.89 34.91 206.08 34.91L206.08 34.91ZM207.92 30.77Q209.02 30.77 210.13 29.51Q211.23 28.24 212.06 26.06Q212.89 23.87 213.26 21.21L213.26 21.21Q212.01 20.93 212.01 19.27L212.01 19.27Q212.01 17.39 213.44 16.79L213.44 16.79Q213.35 15.27 212.98 14.70Q212.61 14.12 211.69 14.12L211.69 14.12Q210.17 14.12 208.75 16.33Q207.32 18.54 206.45 21.62Q205.57 24.70 205.57 27.05L205.57 27.05Q205.57 29.26 206.08 30.01Q206.59 30.77 207.92 30.77L207.92 30.77ZM225.08 35.01Q222.46 35.01 220.71 33.21Q218.96 31.42 218.96 27.60L218.96 27.60Q218.96 24.20 220.32 20.45Q221.67 16.70 224.36 14.10Q227.06 11.50 230.78 11.50L230.78 11.50Q232.67 11.50 233.59 12.14Q234.51 12.79 234.51 13.85L234.51 13.85L234.51 14.03L236.76 3.45L243.57 2.53L238.28 27.37Q238.10 28.06 238.10 28.84L238.10 28.84Q238.10 29.76 238.53 30.15Q238.97 30.54 239.98 30.54L239.98 30.54Q241.27 30.54 242.21 29.44Q243.16 28.34 243.71 26.50L243.71 26.50L245.64 26.50Q242.83 34.73 236.39 34.73L236.39 34.73Q234.51 34.73 233.33 33.72Q232.16 32.71 231.89 30.77L231.89 30.77Q230.69 32.61 229.01 33.81Q227.33 35.01 225.08 35.01L225.08 35.01ZM228.07 30.54Q229.17 30.54 230.30 29.53Q231.43 28.52 231.84 26.73L231.84 26.73L231.84 26.50L234.09 15.96Q233.68 14.35 232.21 14.35L232.21 14.35Q230.37 14.35 228.90 16.49Q227.42 18.63 226.60 21.64Q225.77 24.66 225.77 26.96L225.77 26.96Q225.77 29.26 226.44 29.90Q227.10 30.54 228.07 30.54L228.07 30.54ZM248.26 35.01Q246.05 35.01 244.70 33.63Q243.34 32.25 243.34 29.49L243.34 29.49Q243.34 28.34 243.71 26.50L243.71 26.50L246.84 11.73L253.46 11.73L250.15 27.37Q250.01 28.06 250.01 28.66L250.01 28.66Q250.01 30.54 251.39 30.54L251.39 30.54Q252.68 30.54 253.60 29.46Q254.52 28.38 255.07 26.50L255.07 26.50L258.20 11.73L264.82 11.73L261.51 27.37Q261.33 28.06 261.33 28.84L261.33 28.84Q261.33 29.76 261.76 30.15Q262.20 30.54 263.21 30.54L263.21 30.54Q264.50 30.54 265.44 29.44Q266.39 28.34 266.94 26.50L266.94 26.50L268.87 26.50Q267.17 31.46 264.66 33.23Q262.15 35.01 259.62 35.01L259.62 35.01Q257.65 35.01 256.47 33.90Q255.30 32.80 255.07 30.64L255.07 30.64Q253.51 33.17 251.78 34.09Q250.06 35.01 248.26 35.01L248.26 35.01ZM273.52 35.01Q270.11 35.01 268.23 33.23Q266.34 31.46 266.34 27.69L266.34 27.69Q266.34 24.52 267.60 20.70Q268.87 16.88 271.65 14.10Q274.44 11.32 278.71 11.32L278.71 11.32Q281.47 11.32 282.65 12.51Q283.82 13.71 283.82 15.55L283.82 15.55Q283.82 17.16 283.13 18.03Q282.44 18.91 281.38 18.91L281.38 18.91Q280.60 18.91 279.77 18.35L279.77 18.35Q280.32 16.84 280.32 15.64L280.32 15.64Q280.32 14.77 280.00 14.26Q279.68 13.75 279.04 13.75L279.04 13.75Q277.66 13.75 276.28 16.01Q274.90 18.26 274.02 21.48Q273.15 24.70 273.15 27.28L273.15 27.28Q273.15 29.53 273.93 30.34Q274.71 31.14 276.46 31.14L276.46 31.14Q278.94 31.14 280.71 29.99Q282.49 28.84 284.60 26.50L284.60 26.50L286.17 26.50Q281.06 35.01 273.52 35.01L273.52 35.01ZM289.16 35.01Q286.95 35.01 285.59 33.63Q284.23 32.25 284.23 29.49L284.23 29.49Q284.23 28.34 284.60 26.50L284.60 26.50L287.36 13.57L285.84 13.57L286.21 11.73L287.73 11.73L289.11 5.38L295.92 4.46L294.35 11.73L297.11 11.73L296.75 13.57L293.99 13.57L291.04 27.37Q290.86 28.06 290.86 28.84L290.86 28.84Q290.86 29.76 291.29 30.15Q291.73 30.54 292.74 30.54L292.74 30.54Q294.08 30.54 295.23 29.42Q296.38 28.29 296.88 26.50L296.88 26.50L298.82 26.50Q297.11 31.46 294.45 33.23Q291.78 35.01 289.16 35.01L289.16 35.01ZM304.57 9.25Q303.05 9.25 301.99 8.19Q300.93 7.13 300.93 5.61L300.93 5.61Q300.93 4.09 301.99 3.01Q303.05 1.93 304.57 1.93L304.57 1.93Q306.08 1.93 307.16 3.01Q308.25 4.09 308.25 5.61L308.25 5.61Q308.25 7.13 307.16 8.19Q306.08 9.25 304.57 9.25L304.57 9.25ZM301.44 35.01Q299.23 35.01 297.87 33.63Q296.52 32.25 296.52 29.49L296.52 29.49Q296.52 28.34 296.88 26.50L296.88 26.50L300.01 11.73L306.64 11.73L303.32 27.37Q303.14 28.06 303.14 28.84L303.14 28.84Q303.14 29.76 303.58 30.15Q304.01 30.54 305.03 30.54L305.03 30.54Q306.36 30.54 307.51 29.42Q308.66 28.29 309.17 26.50L309.17 26.50L311.10 26.50Q309.40 31.46 306.73 33.23Q304.06 35.01 301.44 35.01L301.44 35.01ZM315.88 34.91Q312.48 34.91 310.50 33.17Q308.52 31.42 308.52 27.65L308.52 27.65Q308.52 24.52 309.81 20.70Q311.10 16.88 313.95 14.10Q316.80 11.32 321.13 11.32L321.13 11.32Q327.01 11.32 327.01 18.68L327.01 18.68L327.01 18.72Q327.15 18.77 327.52 18.77L327.52 18.77Q329.04 18.77 331.02 17.96Q332.99 17.16 334.60 16.01L334.60 16.01L335.02 17.25Q333.68 18.68 331.54 19.66Q329.41 20.65 326.88 21.07L326.88 21.07Q326.51 25.25 324.99 28.38Q323.47 31.51 321.08 33.21Q318.69 34.91 315.88 34.91L315.88 34.91ZM317.72 30.77Q318.83 30.77 319.93 29.51Q321.03 28.24 321.86 26.06Q322.69 23.87 323.06 21.21L323.06 21.21Q321.82 20.93 321.82 19.27L321.82 19.27Q321.82 17.39 323.24 16.79L323.24 16.79Q323.15 15.27 322.78 14.70Q322.41 14.12 321.49 14.12L321.49 14.12Q319.98 14.12 318.55 16.33Q317.12 18.54 316.25 21.62Q315.38 24.70 315.38 27.05L315.38 27.05Q315.38 29.26 315.88 30.01Q316.39 30.77 317.72 30.77L317.72 30.77ZM345.97 35.01Q343.16 35.01 341.85 33.51Q340.54 32.02 340.54 29.81L340.54 29.81Q340.54 28.84 340.77 27.62Q341.00 26.40 341.25 25.25Q341.50 24.10 341.60 23.78L341.60 23.78Q341.96 22.17 342.29 20.61Q342.61 19.04 342.61 18.08L342.61 18.08Q342.61 15.73 340.95 15.73L340.95 15.73Q339.76 15.73 338.84 16.90Q337.92 18.08 337.36 19.96L337.36 19.96L334.24 34.73L327.61 34.73L332.49 11.73L339.11 11.73L338.61 14.12Q340.91 11.55 343.99 11.55L343.99 11.55Q346.33 11.55 347.71 12.83Q349.09 14.12 349.09 16.74L349.09 16.74Q349.09 18.08 348.77 19.71Q348.45 21.34 347.85 23.69L347.85 23.69Q347.48 25.12 347.18 26.47Q346.89 27.83 346.89 28.61L346.89 28.61Q346.89 29.53 347.30 30.04Q347.71 30.54 348.73 30.54L348.73 30.54Q350.11 30.54 350.93 29.55Q351.76 28.57 352.59 26.50L352.59 26.50L354.52 26.50Q352.82 31.56 350.59 33.28Q348.36 35.01 345.97 35.01L345.97 35.01ZM357.83 35.01Q355.63 35.01 354.11 34.15Q352.59 33.30 351.85 31.95Q351.12 30.59 351.12 29.12L351.12 29.12Q351.12 27.60 351.83 26.47Q352.54 25.35 353.56 24.84L353.56 24.84Q355.35 21.62 356.68 18.33Q358.02 15.04 359.21 11.22L359.21 11.22L366.02 10.30Q366.25 16.19 366.80 23.05L366.80 23.05Q367.03 25.81 367.03 27.05L367.03 27.05Q367.03 28.11 366.85 28.80L366.85 28.80Q369.01 27.55 370.16 26.50L370.16 26.50L372.09 26.50Q369.15 29.90 365.06 32.25L365.06 32.25Q363.72 33.67 361.77 34.34Q359.81 35.01 357.83 35.01L357.83 35.01ZM356.36 31.37Q358.06 31.37 359.21 30.36Q360.36 29.35 360.36 27.09L360.36 27.09Q360.36 25.71 360.09 23.23L360.09 23.23Q359.63 17.99 359.49 16.19L359.49 16.19Q358.39 19.83 355.76 24.89L355.76 24.89Q356.82 25.44 356.82 26.50L356.82 26.50Q356.82 27.37 356.25 28.06Q355.67 28.75 354.80 28.75L354.80 28.75Q353.83 28.75 353.56 28.15L353.56 28.15Q353.56 29.81 354.22 30.59Q354.89 31.37 356.36 31.37L356.36 31.37Z"></path></g></svg><!----></svg>